<svg xmlns="http://www.w3.org/2000/svg" xmlns:xlink="http://www.w3.org/1999/xlink" xmlns:lucid="lucid" width="942.08" height="480"><g transform="translate(-300 -140)" lucid:page-tab-id="0_0"><path d="M431 478h-2v-2.04h2zm0-10.2h-2v-4.1h2zm0-12.26h-2v-4.08h2zm0-12.25h-2v-4.1h2zm0-12.26h-2v-4.08h2zm0-12.25h-2v-4.1h2zm0-12.26h-2v-4.08h2zm0-12.25h-2v-3.5h2zm0-25.1h-2v-3.5h2zm0-11.66h-2v-4.08h2zm0-12.25h-2v-4.1h2zm0-12.26h-2v-4.08h2zm0-12.25h-2v-4.1h2zm0-12.26h-2v-4.08h2zm0-12.25h-2v-4.1h2zm0-12.26h-2V282h2z"/><path d="M431 282.03h-2V281h2zM431 479h-2v-1.03h2z"/><use xlink:href="#a" transform="matrix(1,0,0,1,369.125,369.2) translate(0 14.4)"/><use xlink:href="#b" transform="matrix(1,0,0,1,369.125,369.2) translate(64.85 14.4)"/><path d="M350 480h160v120H350z" stroke="#000" stroke-width="2" fill="#c92d39"/><use xlink:href="#c" transform="matrix(1,0,0,1,355,485) translate(1.625 59.0875)"/><path d="M320 160h220v120H320z" stroke="#000" stroke-width="2" fill="#7ab648"/><use xlink:href="#d" transform="matrix(1,0,0,1,325,165) translate(3.674999999999997 59.0875)"/><path d="M855.2 160h160v120h-160z" stroke="#000" stroke-width="2" fill="#b391b5"/><use xlink:href="#e" transform="matrix(1,0,0,1,860.1999999999999,165) translate(28.049999999999997 59.0875)"/><path d="M855.2 480h160v120h-160z" stroke="#000" stroke-width="2" fill="#ef8d22"/><use xlink:href="#f" transform="matrix(1,0,0,1,860.1999999999999,485) translate(9.599999999999994 59.0875)"/><path d="M544 221h-2v-2h2zm11.96 0h-4v-2h4zm11.97 0h-4v-2h4zm11.97 0h-4v-2h4zm11.97 0h-4v-2h4zm11.97 0h-4v-2h4zm8.62 0h-.64v-2h.64zm135 0h-3.98v-2h4zm11.98 0h-4v-2h4zm11.97 0h-3.98v-2h4zm11.98 0h-4v-2h4zm11.97 0h-4v-2h4zm11.97 0h-4v-2h4zm11.97 0h-4v-2h4zm11.96 0h-4v-2h4zm11.97 0h-4v-2h4zm9.97 0h-2v-2h2zm-117.7 0h-1.3v-2h1.3z"/><path d="M542.03 221H541v-2h1.03zM854.2 221h-1.03v-2h1.03z"/><use xlink:href="#a" transform="matrix(1,0,0,1,612.4583333333334,209.2) translate(0 14.4)"/><use xlink:href="#b" transform="matrix(1,0,0,1,612.4583333333334,209.2) translate(64.85 14.4)"/><path d="M936.2 478h-2v-87.2h2zm0-108.8h-2V282h2z"/><path d="M936.2 282.03h-2V281h2zM936.2 479h-2v-1.03h2z"/><use xlink:href="#g" transform="matrix(1,0,0,1,874.925,369.2) translate(0 14.4)"/><use xlink:href="#h" transform="matrix(1,0,0,1,874.925,369.2) translate(35.85 14.4)"/><path d="M853.2 540H782" stroke="#000" stroke-width="2" fill="none"/><path d="M854.2 541h-1.03v-2h1.03zM782.03 541h-1.1l.07-.98-.03-1.02h1.06z"/><path d="M583.22 540H512" stroke="#000" stroke-width="2" fill="none"/><path d="M584.22 539.98l.03 1.02h-1.06v-2h1.1zM512.03 541H511v-2h1.03z"/><path d="M1220 252c0 4.42-17.9 8-40 8s-40-3.58-40-8v-64c0-4.42 17.9-8 40-8s40 3.58 40 8z" stroke="#000" stroke-width="2" fill="#0c7cba"/><path d="M1220 188c0 4.42-17.9 8-40 8s-40-3.58-40-8" stroke="#000" stroke-width="2" fill="none"/><use xlink:href="#i" transform="matrix(1,0,0,1,1145,201) translate(-4.925000000000004 30.6)"/><path d="M1220 572c0 4.42-17.9 8-40 8s-40-3.58-40-8v-64c0-4.42 17.9-8 40-8s40 3.58 40 8z" stroke="#000" stroke-width="2" fill="#0c7cba"/><path d="M1220 508c0 4.42-17.9 8-40 8s-40-3.58-40-8" stroke="#000" stroke-width="2" fill="none"/><use xlink:href="#i" transform="matrix(1,0,0,1,1145,521) translate(-4.925000000000004 30.6)"/><path d="M1017.2 220h103.3" stroke="#000" stroke-width="2" fill="none"/><path d="M1017.23 221h-1.03v-2h1.03z"/><path d="M1135.76 220l-14.26 4.64v-9.28z" stroke="#000" stroke-width="2"/><path d="M1017.2 540h103.3" stroke="#000" stroke-width="2" fill="none"/><path d="M1017.23 541h-1.03v-2h1.03z"/><path d="M1135.76 540l-14.26 4.64v-9.28z" stroke="#000" stroke-width="2"/><path d="M760.52 510c10.76 0 19.48 13.43 19.48 30s-8.72 30-19.48 30H604.7c-10.76 0-19.48-13.43-19.48-30s8.72-30 19.47-30z" stroke="#000" stroke-width="2" fill="#fcc438"/><path d="M760.52 570c-10.76 0-19.48-13.43-19.48-30s8.72-30 19.48-30" stroke="#000" stroke-width="2" fill="none"/><g><use xlink:href="#j" transform="matrix(1,0,0,1,590.2166666666666,515) translate(6.099999999999994 30.3375)"/></g><defs><path d="M114-163C36-179 61-72 57 0H25l-1-190h30c1 12-1 29 2 39 6-27 23-49 58-41v29" id="k"/><path d="M100-194c63 0 86 42 84 106H49c0 40 14 67 53 68 26 1 43-12 49-29l28 8c-11 28-37 45-77 45C44 4 14-33 15-96c1-61 26-98 85-98zm52 81c6-60-76-77-97-28-3 7-6 17-6 28h103" id="l"/><path d="M177-190C167-65 218 103 67 71c-23-6-38-20-44-43l32-5c15 47 100 32 89-28v-30C133-14 115 1 83 1 29 1 15-40 15-95c0-56 16-97 71-98 29-1 48 16 59 35 1-10 0-23 2-32h30zM94-22c36 0 50-32 50-73 0-42-14-75-50-75-39 0-46 34-46 75s6 73 46 73" id="m"/><path d="M24-231v-30h32v30H24zM24 0v-190h32V0H24" id="n"/><path d="M135-143c-3-34-86-38-87 0 15 53 115 12 119 90S17 21 10-45l28-5c4 36 97 45 98 0-10-56-113-15-118-90-4-57 82-63 122-42 12 7 21 19 24 35" id="o"/><path d="M59-47c-2 24 18 29 38 22v24C64 9 27 4 27-40v-127H5v-23h24l9-43h21v43h35v23H59v120" id="p"/><g id="a"><use transform="matrix(0.05,0,0,0.05,0,0)" xlink:href="#k"/><use transform="matrix(0.05,0,0,0.05,5.95,0)" xlink:href="#l"/><use transform="matrix(0.05,0,0,0.05,15.949999999999998,0)" xlink:href="#m"/><use transform="matrix(0.05,0,0,0.05,25.950000000000003,0)" xlink:href="#n"/><use transform="matrix(0.05,0,0,0.05,29.899999999999995,0)" xlink:href="#o"/><use transform="matrix(0.05,0,0,0.05,38.9,0)" xlink:href="#p"/><use transform="matrix(0.05,0,0,0.05,43.9,0)" xlink:href="#l"/><use transform="matrix(0.05,0,0,0.05,53.900000000000006,0)" xlink:href="#k"/></g><path d="M108 0H70L1-190h34L89-25l56-165h34" id="q"/><path d="M96-169c-40 0-48 33-48 73s9 75 48 75c24 0 41-14 43-38l32 2c-6 37-31 61-74 61-59 0-76-41-82-99-10-93 101-131 147-64 4 7 5 14 7 22l-32 3c-4-21-16-35-41-35" id="r"/><g id="b"><use transform="matrix(0.05,0,0,0.05,0,0)" xlink:href="#o"/><use transform="matrix(0.05,0,0,0.05,9,0)" xlink:href="#l"/><use transform="matrix(0.05,0,0,0.05,19,0)" xlink:href="#k"/><use transform="matrix(0.05,0,0,0.05,24.95,0)" xlink:href="#q"/><use transform="matrix(0.05,0,0,0.05,33.95,0)" xlink:href="#n"/><use transform="matrix(0.05,0,0,0.05,37.900000000000006,0)" xlink:href="#r"/><use transform="matrix(0.05,0,0,0.05,46.900000000000006,0)" xlink:href="#l"/></g><path d="M190-63c-7 42-38 67-86 67-59 0-84-38-90-98-12-110 154-137 174-36l-49 2c-2-19-15-32-35-32-30 0-35 28-38 64-6 74 65 87 74 30" id="s"/><path d="M114-157C55-157 80-60 75 0H25v-261h50l-1 109c12-26 28-41 61-42 86-1 58 113 63 194h-50c-7-57 23-157-34-157" id="t"/><path d="M185-48c-13 30-37 53-82 52C43 2 14-33 14-96s30-98 90-98c62 0 83 45 84 108H66c0 31 8 55 39 56 18 0 30-7 34-22zm-45-69c5-46-57-63-70-21-2 6-4 13-4 21h74" id="u"/><path d="M147 0L96-86 75-71V0H25v-261h50v150l67-79h53l-66 74L201 0h-54" id="v"/><path d="M110-194c64 0 96 36 96 99 0 64-35 99-97 99-61 0-95-36-95-99 0-62 34-99 96-99zm-1 164c35 0 45-28 45-65 0-40-10-65-43-65-34 0-45 26-45 65 0 36 10 65 43 65" id="w"/><path d="M85 4C-2 5 27-109 22-190h50c7 57-23 150 33 157 60-5 35-97 40-157h50l1 190h-47c-2-12 1-28-3-38-12 25-28 42-61 42" id="x"/><path d="M115-3C79 11 28 4 28-45v-112H4v-33h27l15-45h31v45h36v33H77v99c-1 23 16 31 38 25v30" id="y"/><path d="M14-72v-43h91v43H14" id="z"/><path d="M137-138c1-29-70-34-71-4 15 46 118 7 119 86 1 83-164 76-172 9l43-7c4 19 20 25 44 25 33 8 57-30 24-41C81-84 22-81 20-136c-2-80 154-74 161-7" id="A"/><path d="M135-150c-39-12-60 13-60 57V0H25l-1-190h47c2 13-1 29 3 40 6-28 27-53 61-41v41" id="B"/><path d="M128 0H69L1-190h53L99-40l48-150h52" id="C"/><path d="M25-224v-37h50v37H25zM25 0v-190h50V0H25" id="D"/><g id="c"><use transform="matrix(0.05,0,0,0.05,0,0)" xlink:href="#s"/><use transform="matrix(0.05,0,0,0.05,10,0)" xlink:href="#t"/><use transform="matrix(0.05,0,0,0.05,20.950000000000003,0)" xlink:href="#u"/><use transform="matrix(0.05,0,0,0.05,30.950000000000003,0)" xlink:href="#s"/><use transform="matrix(0.05,0,0,0.05,40.95,0)" xlink:href="#v"/><use transform="matrix(0.05,0,0,0.05,50.95,0)" xlink:href="#w"/><use transform="matrix(0.05,0,0,0.05,61.900000000000006,0)" xlink:href="#x"/><use transform="matrix(0.05,0,0,0.05,72.85000000000001,0)" xlink:href="#y"/><use transform="matrix(0.05,0,0,0.05,78.80000000000001,0)" xlink:href="#z"/><use transform="matrix(0.05,0,0,0.05,84.75000000000001,0)" xlink:href="#A"/><use transform="matrix(0.05,0,0,0.05,94.75000000000001,0)" xlink:href="#u"/><use transform="matrix(0.05,0,0,0.05,104.75,0)" xlink:href="#B"/><use transform="matrix(0.05,0,0,0.05,111.75,0)" xlink:href="#C"/><use transform="matrix(0.05,0,0,0.05,121.75,0)" xlink:href="#D"/><use transform="matrix(0.05,0,0,0.05,126.75,0)" xlink:href="#s"/><use transform="matrix(0.05,0,0,0.05,136.75,0)" xlink:href="#u"/></g><path d="M133-34C117-15 103 5 69 4 32 3 11-16 11-54c-1-60 55-63 116-61 1-26-3-47-28-47-18 1-26 9-28 27l-52-2c7-38 36-58 82-57s74 22 75 68l1 82c-1 14 12 18 25 15v27c-30 8-71 5-69-32zm-48 3c29 0 43-24 42-57-32 0-66-3-65 30 0 17 8 27 23 27" id="E"/><g id="d"><use transform="matrix(0.05,0,0,0.05,0,0)" xlink:href="#s"/><use transform="matrix(0.05,0,0,0.05,10,0)" xlink:href="#t"/><use transform="matrix(0.05,0,0,0.05,20.950000000000003,0)" xlink:href="#u"/><use transform="matrix(0.05,0,0,0.05,30.950000000000003,0)" xlink:href="#s"/><use transform="matrix(0.05,0,0,0.05,40.95,0)" xlink:href="#v"/><use transform="matrix(0.05,0,0,0.05,50.95,0)" xlink:href="#w"/><use transform="matrix(0.05,0,0,0.05,61.900000000000006,0)" xlink:href="#x"/><use transform="matrix(0.05,0,0,0.05,72.85000000000001,0)" xlink:href="#y"/><use transform="matrix(0.05,0,0,0.05,78.80000000000001,0)" xlink:href="#z"/><use transform="matrix(0.05,0,0,0.05,84.75000000000001,0)" xlink:href="#u"/><use transform="matrix(0.05,0,0,0.05,94.75000000000001,0)" xlink:href="#x"/><use transform="matrix(0.05,0,0,0.05,105.7,0)" xlink:href="#B"/><use transform="matrix(0.05,0,0,0.05,112.7,0)" xlink:href="#u"/><use transform="matrix(0.05,0,0,0.05,122.7,0)" xlink:href="#v"/><use transform="matrix(0.05,0,0,0.05,132.70000000000002,0)" xlink:href="#E"/><use transform="matrix(0.05,0,0,0.05,142.70000000000002,0)" xlink:href="#z"/><use transform="matrix(0.05,0,0,0.05,148.65,0)" xlink:href="#A"/><use transform="matrix(0.05,0,0,0.05,158.65,0)" xlink:href="#u"/><use transform="matrix(0.05,0,0,0.05,168.65,0)" xlink:href="#B"/><use transform="matrix(0.05,0,0,0.05,175.65,0)" xlink:href="#C"/><use transform="matrix(0.05,0,0,0.05,185.65,0)" xlink:href="#u"/><use transform="matrix(0.05,0,0,0.05,195.65,0)" xlink:href="#B"/></g><path d="M135-194c52 0 70 43 70 98 0 56-19 99-73 100-30 1-46-15-58-35L72 0H24l1-261h50v104c11-23 29-37 60-37zM114-30c31 0 40-27 40-66 0-37-7-63-39-63s-41 28-41 65c0 36 8 64 40 64" id="F"/><path d="M25 0v-261h50V0H25" id="G"/><g id="e"><use transform="matrix(0.05,0,0,0.05,0,0)" xlink:href="#F"/><use transform="matrix(0.05,0,0,0.05,10.950000000000001,0)" xlink:href="#D"/><use transform="matrix(0.05,0,0,0.05,15.950000000000001,0)" xlink:href="#G"/><use transform="matrix(0.05,0,0,0.05,20.950000000000003,0)" xlink:href="#G"/><use transform="matrix(0.05,0,0,0.05,25.950000000000003,0)" xlink:href="#z"/><use transform="matrix(0.05,0,0,0.05,31.900000000000002,0)" xlink:href="#A"/><use transform="matrix(0.05,0,0,0.05,41.900000000000006,0)" xlink:href="#u"/><use transform="matrix(0.05,0,0,0.05,51.900000000000006,0)" xlink:href="#B"/><use transform="matrix(0.05,0,0,0.05,58.900000000000006,0)" xlink:href="#C"/><use transform="matrix(0.05,0,0,0.05,68.9,0)" xlink:href="#D"/><use transform="matrix(0.05,0,0,0.05,73.9,0)" xlink:href="#s"/><use transform="matrix(0.05,0,0,0.05,83.9,0)" xlink:href="#u"/></g><path d="M195-6C206 82 75 100 31 46c-4-6-6-13-8-21l49-6c3 16 16 24 34 25 40 0 42-37 40-79-11 22-30 35-61 35-53 0-70-43-70-97 0-56 18-96 73-97 30 0 46 14 59 34l2-30h47zm-90-29c32 0 41-27 41-63 0-35-9-62-40-62-32 0-39 29-40 63 0 36 9 62 39 62" id="H"/><g id="f"><use transform="matrix(0.05,0,0,0.05,0,0)" xlink:href="#G"/><use transform="matrix(0.05,0,0,0.05,5,0)" xlink:href="#w"/><use transform="matrix(0.05,0,0,0.05,15.950000000000001,0)" xlink:href="#H"/><use transform="matrix(0.05,0,0,0.05,26.900000000000002,0)" xlink:href="#D"/><use transform="matrix(0.05,0,0,0.05,31.900000000000002,0)" xlink:href="#A"/><use transform="matrix(0.05,0,0,0.05,41.900000000000006,0)" xlink:href="#y"/><use transform="matrix(0.05,0,0,0.05,47.85000000000001,0)" xlink:href="#D"/><use transform="matrix(0.05,0,0,0.05,52.85,0)" xlink:href="#s"/><use transform="matrix(0.05,0,0,0.05,62.85,0)" xlink:href="#z"/><use transform="matrix(0.05,0,0,0.05,68.80000000000001,0)" xlink:href="#A"/><use transform="matrix(0.05,0,0,0.05,78.80000000000001,0)" xlink:href="#u"/><use transform="matrix(0.05,0,0,0.05,88.80000000000001,0)" xlink:href="#B"/><use transform="matrix(0.05,0,0,0.05,95.80000000000001,0)" xlink:href="#C"/><use transform="matrix(0.05,0,0,0.05,105.80000000000001,0)" xlink:href="#D"/><use transform="matrix(0.05,0,0,0.05,110.80000000000001,0)" xlink:href="#s"/><use transform="matrix(0.05,0,0,0.05,120.80000000000001,0)" xlink:href="#u"/></g><path d="M212-179c-10-28-35-45-73-45-59 0-87 40-87 99 0 60 29 101 89 101 43 0 62-24 78-52l27 14C228-24 195 4 139 4 59 4 22-46 18-125c-6-104 99-153 187-111 19 9 31 26 39 46" id="I"/><path d="M141-36C126-15 110 5 73 4 37 3 15-17 15-53c-1-64 63-63 125-63 3-35-9-54-41-54-24 1-41 7-42 31l-33-3c5-37 33-52 76-52 45 0 72 20 72 64v82c-1 20 7 32 28 27v20c-31 9-61-2-59-35zM48-53c0 20 12 33 32 33 41-3 63-29 60-74-43 2-92-5-92 41" id="J"/><path d="M24 0v-261h32V0H24" id="K"/><g id="g"><use transform="matrix(0.05,0,0,0.05,0,0)" xlink:href="#I"/><use transform="matrix(0.05,0,0,0.05,12.950000000000001,0)" xlink:href="#J"/><use transform="matrix(0.05,0,0,0.05,22.950000000000003,0)" xlink:href="#K"/><use transform="matrix(0.05,0,0,0.05,26.900000000000002,0)" xlink:href="#K"/></g><path d="M115-194c53 0 69 39 70 98 0 66-23 100-70 100C84 3 66-7 56-30L54 0H23l1-261h32v101c10-23 28-34 59-34zm-8 174c40 0 45-34 45-75 0-40-5-75-45-74-42 0-51 32-51 76 0 43 10 73 51 73" id="L"/><path d="M16-82v-28h88v28H16" id="M"/><g id="h"><use transform="matrix(0.05,0,0,0.05,0,0)" xlink:href="#L"/><use transform="matrix(0.05,0,0,0.05,10,0)" xlink:href="#n"/><use transform="matrix(0.05,0,0,0.05,13.949999999999998,0)" xlink:href="#K"/><use transform="matrix(0.05,0,0,0.05,17.9,0)" xlink:href="#K"/><use transform="matrix(0.05,0,0,0.05,21.849999999999998,0)" xlink:href="#M"/><use transform="matrix(0.05,0,0,0.05,27.799999999999997,0)" xlink:href="#o"/><use transform="matrix(0.05,0,0,0.05,36.8,0)" xlink:href="#l"/><use transform="matrix(0.05,0,0,0.05,46.8,0)" xlink:href="#k"/><use transform="matrix(0.05,0,0,0.05,52.75,0)" xlink:href="#q"/><use transform="matrix(0.05,0,0,0.05,61.75,0)" xlink:href="#n"/><use transform="matrix(0.05,0,0,0.05,65.7,0)" xlink:href="#r"/><use transform="matrix(0.05,0,0,0.05,74.7,0)" xlink:href="#l"/></g><path d="M24-248c120-7 223 5 221 122C244-46 201 0 124 0H24v-248zM76-40c74 7 117-18 117-86 0-67-45-88-117-82v168" id="N"/><g id="i"><use transform="matrix(0.05,0,0,0.05,0,0)" xlink:href="#N"/><use transform="matrix(0.05,0,0,0.05,12.950000000000001,0)" xlink:href="#E"/><use transform="matrix(0.05,0,0,0.05,22.950000000000003,0)" xlink:href="#y"/><use transform="matrix(0.05,0,0,0.05,28.900000000000002,0)" xlink:href="#E"/><use transform="matrix(0.05,0,0,0.05,38.900000000000006,0)" xlink:href="#F"/><use transform="matrix(0.05,0,0,0.05,49.85000000000001,0)" xlink:href="#E"/><use transform="matrix(0.05,0,0,0.05,59.85,0)" xlink:href="#A"/><use transform="matrix(0.05,0,0,0.05,69.85000000000001,0)" xlink:href="#u"/></g><path d="M230 0l2-204L168 0h-37L68-204 70 0H24v-248h70l56 185 57-185h69V0h-46" id="O"/><path d="M182-130c37 4 62 22 62 59C244 23 116-4 24 0v-248c84 5 203-23 205 63 0 31-19 50-47 55zM76-148c40-3 101 13 101-30 0-44-60-28-101-31v61zm0 110c48-3 116 14 116-37 0-48-69-32-116-35v72" id="P"/><g id="j"><use transform="matrix(0.05,0,0,0.05,0,0)" xlink:href="#O"/><use transform="matrix(0.05,0,0,0.05,14.950000000000001,0)" xlink:href="#u"/><use transform="matrix(0.05,0,0,0.05,24.950000000000003,0)" xlink:href="#A"/><use transform="matrix(0.05,0,0,0.05,34.95,0)" xlink:href="#A"/><use transform="matrix(0.05,0,0,0.05,44.95,0)" xlink:href="#E"/><use transform="matrix(0.05,0,0,0.05,54.95,0)" xlink:href="#H"/><use transform="matrix(0.05,0,0,0.05,65.9,0)" xlink:href="#u"/><use transform="matrix(0.05,0,0,0.05,75.9,0)" xlink:href="#P"/><use transform="matrix(0.05,0,0,0.05,88.85000000000001,0)" xlink:href="#B"/><use transform="matrix(0.05,0,0,0.05,95.85000000000001,0)" xlink:href="#w"/><use transform="matrix(0.05,0,0,0.05,106.80000000000001,0)" xlink:href="#v"/><use transform="matrix(0.05,0,0,0.05,116.80000000000001,0)" xlink:href="#u"/><use transform="matrix(0.05,0,0,0.05,126.80000000000001,0)" xlink:href="#B"/></g></defs></g></svg>